<?xml version="1.0" standalone="no"?><!DOCTYPE svg PUBLIC "-//W3C//DTD SVG 1.1//EN" "http://www.w3.org/Graphics/SVG/1.1/DTD/svg11.dtd"><svg t="1698546885914" class="icon" viewBox="0 0 1024 1024" version="1.1" xmlns="http://www.w3.org/2000/svg" p-id="1486" xmlns:xlink="http://www.w3.org/1999/xlink" width="200" height="200"><path d="M512 196c153.994 0 284.737 111.387 311.102 261.31l0.26 1.542 0.951 0.312 1.022 0.326 1.093 0.341 0.573 0.176C905.323 483.856 960 556.909 960 640.207c0 102.676-82.377 186.11-184.631 187.768l-3.105 0.025H637.74c-16.568 0-30-13.431-30-30 0-16.403 13.165-29.731 29.504-29.996l0.496-0.004h134.524C842.808 768 900 710.788 900 640.207c0-56.772-37.302-106.61-90.477-122.802l-1.453-0.447-1.416-0.446a208.85 208.85 0 0 1-0.694-0.222l-1.362-0.443a175.52 175.52 0 0 1-0.667-0.222l-1.31-0.444-0.641-0.223-1.26-0.447c-0.413-0.149-0.822-0.298-1.226-0.449l-1.195-0.452c-0.59-0.227-1.17-0.456-1.737-0.687l-1.121-0.464c-7.567-3.193-13.173-6.821-18.182-12.054-4.843-5.058-8.063-10.817-10.085-17.243l-0.217-0.701-0.202-0.677-0.188-0.659-0.176-0.649-0.165-0.646-0.158-0.65-0.151-0.661-0.147-0.681-0.216-1.072a85.159 85.159 0 0 1-0.071-0.375l-0.144-0.781-0.298-1.713-0.41-2.5C744.794 348.116 637.942 256 512 256c-126.462 0-233.287 91.903-252.754 215.305-3.633 23.028-16.638 39.022-41.125 46.089l-0.746 0.211C162.478 532.9 124 582.605 124 640.207c0 69.875 56.054 126.647 125.624 127.776l2.112 0.017H385.59c16.568 0 30 13.431 30 30 0 16.403-13.164 29.731-29.504 30h-134.35C148.05 828 64 743.92 64 640.207c0-83.92 55.516-156.473 134.861-179.712l1.426-0.407 0.446-2.695c25.68-148.665 154.122-259.142 306.592-261.359L512 196z m0 247c16.403 0 29.731 13.164 29.996 29.504L542 473v226.397l45.573-42.369c12.135-11.28 31.117-10.59 42.399 1.545 11.168 12.013 10.602 30.738-1.185 42.058l-0.36 0.34-96 89.25c-11.4 10.598-28.984 10.704-40.506 0.319l-0.348-0.318-96-89.25c-12.134-11.282-12.826-30.264-1.545-42.399 11.169-12.013 29.885-12.81 42.033-1.88l0.366 0.335L482 699.397V473c0-16.569 13.431-30 30-30z" fill="#FFEFD5" p-id="1487"></path></svg>